<?xml version="1.0" encoding="utf-8"?>
<!-- Generator: Adobe Illustrator 18.1.1, SVG Export Plug-In . SVG Version: 6.00 Build 0)  -->
<svg version="1.1" id="Layer_1" xmlns="http://www.w3.org/2000/svg" xmlns:xlink="http://www.w3.org/1999/xlink" x="0px" y="0px"
	 viewBox="0 0 127.6 127.6" enable-background="new 0 0 127.6 127.6" xml:space="preserve">
<g>
	<path fill="#FFFFFF" d="M53,75.6l-2.1-1c-1.7-0.8-2.9-1.5-3.5-2c-0.6-0.5-1.1-1.1-1.4-1.8c-0.3-0.7-0.5-1.5-0.5-2.3
		c0-1.4,0.4-2.5,1.3-3.4c0.9-0.9,2.1-1.3,3.7-1.3c1.1,0,2.2,0.2,3.5,0.6c1.2,0.4,2.2,0.8,2.8,1.3l0-4.3c-1.2-0.7-2.8-1.3-4.9-1.4
		l0-3.6h-4.4l0,3.8c-1.9,0.6-3.2,1.2-4.6,2.8c-1.3,1.6-2,3.4-2,5.5c0,2.1,0.5,3.8,1.4,5.3c0.9,1.5,2.5,2.7,4.8,3.8l2.7,1.3
		c1.9,0.9,3.1,1.6,3.7,2c0.5,0.4,1,1,1.3,1.8c0.3,0.7,0.5,1.6,0.5,2.5c0,1.5-0.5,2.7-1.6,3.7c-1.1,1-2.5,1.5-4.3,1.5
		c-1,0-2.1-0.1-3.6-0.4c-1.3-0.3-1.9-0.5-3.2-1l0,4.2c0.8,0.4,1.5,0.6,2.3,0.8c0.8,0.2,1.7,0.4,2.7,0.5l0,3.6H52l0-3.9
		c2.6-0.4,4.2-1.3,5.6-2.9c1.5-1.6,2.2-3.4,2.2-5.4c0-2.5-0.5-4.6-1.6-6.2C57.1,78,55.3,76.7,53,75.6z"/>
	<path fill="#FFFFFF" d="M123.9,48.6H84.1L73.5,34.2c1.4-0.8,2.3-2.3,2.3-4v-2.8c0-1.9-1.1-3.5-2.7-4.2l9.3-9c0.4-0.4,0.7-1,0.7-1.6
		c0-0.6-0.2-1.2-0.7-1.6l-4.6-4.6C75.7,4.2,72.9,3,70,3c-3,0-5.8,1.2-7.8,3.3L60,8.4l0,0c-2.5-2.5-5.8-3.9-9.3-3.9
		c-3.5,0-6.8,1.4-9.3,3.9l0,0l-2.1-2.1C37,4.2,34.2,3,31.3,3c-3,0-5.8,1.2-7.8,3.3l-4.6,4.6c-0.4,0.4-0.7,1-0.7,1.6
		c0,0.6,0.3,1.2,0.7,1.6L28,23c-1.8,0.7-3,2.4-3,4.4v2.8c0,1.7,0.9,3.2,2.3,4l-17,22.9C3.7,65.9,0.1,76.5,0.2,86.9
		c0,10.4,3.3,18.8,9.8,25c8.4,8,22,12.1,40.4,12.1c15.3,0,21.8-0.3,22.5-0.3h51.1c1.2,0,2.3-1,2.3-2.3V50.8
		C126.2,49.6,125.2,48.6,123.9,48.6z M29.7,30.4c-0.1,0-0.2-0.1-0.2-0.2v-2.8c0-0.1,0.1-0.2,0.2-0.2h3.6H68h3.1
		c0.1,0,0.2,0.1,0.2,0.2v2.8c0,0.1-0.1,0.2-0.2,0.2h-1.6H31.3H29.7z M26.6,9.5c1.2-1.2,2.9-1.9,4.7-1.9s3.4,0.7,4.7,1.9l3.7,3.7
		c0.8,0.8,2.3,0.8,3.2,0l1.6-1.6C46.1,9.9,48.3,9,50.6,9c2.3,0,4.5,0.9,6.1,2.5l1.6,1.6c0.8,0.8,2.3,0.8,3.2,0l3.7-3.7
		c1.2-1.2,2.9-1.9,4.7-1.9c1.8,0,3.4,0.7,4.7,1.9l3,3L67.1,22.7H34.1L23.6,12.5L26.6,9.5z M4.7,86.9c0-9.4,3.3-19.1,9.2-27.1
		l18.5-24.9h36l10.2,13.7h-5.7c-1.2,0-2.3,1-2.3,2.3v68.5c-3.1,0.1-9.5,0.2-20.2,0.2C20.5,119.5,4.7,108.2,4.7,86.9z M121.7,119.2
		H75.1V53.1h8c0,0,0,0,0.1,0h38.5V119.2z"/>
	<path fill="#FFFFFF" d="M80,56.5c-0.8,0-1.5,0.7-1.5,1.5v8.1c0,0.8,0.7,1.5,1.5,1.5h36.8c0.8,0,1.5-0.7,1.5-1.5V58
		c0-0.8-0.7-1.5-1.5-1.5H80z M115.2,64.6H81.5v-5.1h33.8V64.6z"/>
	<path fill="#FFFFFF" d="M116.7,77.1H80c-0.8,0-1.5,0.7-1.5,1.5v35.2c0,0.8,0.7,1.5,1.5,1.5h17.6c0.2,0.2,0.5,0.2,0.8,0.2
		s0.6-0.1,0.8-0.2h7.2c0.3,0.3,0.7,0.5,1.1,0.5s0.8-0.2,1.1-0.5h8.1c0.8,0,1.5-0.7,1.5-1.5V78.6C118.2,77.8,117.6,77.1,116.7,77.1z
		 M106,88.7v6.2h-6.2v-6.2H106z M99.9,85.7v-5.6h6.2v5.6H99.9z M109,88.7h6.2v6.2H109V88.7z M96.9,94.8h-6.2v-6.2h6.2V94.8z
		 M87.7,94.8h-6.2v-6.2h6.2V94.8z M81.5,97.8h6.2v6.2h-6.2V97.8z M90.7,97.8h6.2v6.2h-6.2V97.8z M96.9,107v5.3h-6.2V107H96.9z
		 M99.9,107h6.2v5.3h-6.2V107z M99.9,104v-6.2h6.2v6.2H99.9z M109,97.8h6.2v6.2H109V97.8z M115.2,85.7H109v-5.6h6.2V85.7z
		 M96.9,80.1v5.6H81.5v-5.6H96.9z M81.5,107h6.2v5.3h-6.2V107z M109,112.3V107h6.2v5.3H109z"/>
</g>
</svg>
