<?xml version="1.0"?>
<svg xmlns="http://www.w3.org/2000/svg" viewBox="0 0 64 64" width="512px" height="512px"><g><g id="Download"><path d="M54,30.6V15a3,3,0,0,0-2-2.816V9a3,3,0,0,0-3-3H21a1,1,0,0,1-1-1,3,3,0,0,0-3-3H5A3,3,0,0,0,2,5V43a3,3,0,0,0,3,3H28.051A16.989,16.989,0,1,0,54,30.6ZM4,43V5A1,1,0,0,1,5,4H17a1,1,0,0,1,1,1,3,3,0,0,0,3,3H49a1,1,0,0,1,1,1v3H13a5.006,5.006,0,0,0-5,5V41a4.948,4.948,0,0,0,1.026,3H5A1,1,0,0,1,4,43Zm6-2V17a3,3,0,0,1,3-3H51a1,1,0,0,1,1,1V29.526A16.947,16.947,0,0,0,28.051,44H13A3,3,0,0,1,10,41ZM45,60A15,15,0,1,1,60,45,15.017,15.017,0,0,1,45,60Z" data-original="#000000" class="active-path" data-old_color="#000000" fill="#BE1E2D"/><path d="M53.424,42.094a1,1,0,0,0-1.064.138L48,45.865V35a1,1,0,0,0-1-1H43a1,1,0,0,0-1,1V45.865l-4.36-3.633A1,1,0,0,0,36,43v5a1,1,0,0,0,.341.752l8,7a1,1,0,0,0,1.318,0l8-7A1,1,0,0,0,54,48V43A1,1,0,0,0,53.424,42.094ZM52,47.546l-7,6.125-7-6.125V45.135l4.36,3.633A1,1,0,0,0,44,48V36h2V48a1,1,0,0,0,1.64.768L52,45.135Z" data-original="#000000" class="active-path" data-old_color="#000000" fill="#BE1E2D"/><path d="M13,16a1,1,0,0,0-1,1v4h2V18h3V16Z" data-original="#000000" class="active-path" data-old_color="#000000" fill="#BE1E2D"/><rect x="12" y="23" width="2" height="2" data-original="#000000" class="active-path" data-old_color="#000000" fill="#BE1E2D"/></g></g> </svg>
