<?xml version="1.0" encoding="utf-8"?>
<!-- Generator: Adobe Illustrator 18.1.1, SVG Export Plug-In . SVG Version: 6.00 Build 0)  -->
<svg version="1.1" id="Layer_1" xmlns="http://www.w3.org/2000/svg" xmlns:xlink="http://www.w3.org/1999/xlink" x="0px" y="0px"
	 viewBox="0 0 121.9 113.4" enable-background="new 0 0 121.9 113.4" xml:space="preserve">
<g>
	<path fill="#BE1E2D" d="M117.1,71.9h-6.3v-8c0-1.2-1-2.3-2.3-2.3h-8.9c-1.2,0-2.3,1-2.3,2.3v8h-4V59.4c0-1.2-1-2.3-2.3-2.3h-1.9V38
		c0-1.2-1-2.3-2.3-2.3h-4.5V20.3c0-1.2-1-2.3-2.3-2.3s-2.3,1-2.3,2.3v15.5h-4.5c-1.2,0-2.3,1-2.3,2.3v19.1h-1.9
		c-1.2,0-2.3,1-2.3,2.3v12.9h-3.4v-9.3c0-1.2-1-2.3-2.3-2.3c-1.2,0-2.3,1-2.3,2.3v9.3h-3.4V25.2c0-1.2-1-2.3-2.3-2.3h-6v-8
		c0-1.2-1-2.3-2.3-2.3H39V6.4c0-1.2-1-2.3-2.3-2.3h-8.6c-1.2,0-2.3,1-2.3,2.3v6.3h-6.2c-1.2,0-2.3,1-2.3,2.3v8h-6
		c-1.2,0-2.3,1-2.3,2.3V51H3c-1.2,0-2.3,1-2.3,2.3v54.4c0,1.2,1,2.3,2.3,2.3h8.6h41.9h15.9h21.9h25.9c1.2,0,2.3-1,2.3-2.3V74.2
		C119.3,72.9,118.3,71.9,117.1,71.9z M101.9,66.2h4.4v5.7h-4.4V66.2z M71.5,61.7h1.9H87h1.9v12.5v31.2H71.5V74.6V61.7z M75.7,40.3h9
		v16.9h-9V40.3z M30.4,8.7h4.1v4.1h-4.1V8.7z M22,17.2h20.9v5.7H22V17.2z M13.8,27.4h6h25.4h6v47.1v30.8H13.8V53.3V27.4z M5.2,55.5
		h4.1v49.9H5.2V55.5z M55.7,76.8H67v28.6H55.7V76.8z M93.4,105.4v-29h6.3h8.9h6.3v29H93.4z"/>
	<path fill="#BE1E2D" d="M21.9,40.7c1.2,0,2.3-1,2.3-2.3v-4.3c0-1.2-1-2.3-2.3-2.3s-2.3,1-2.3,2.3v4.3
		C19.7,39.7,20.7,40.7,21.9,40.7z"/>
	<path fill="#BE1E2D" d="M32.5,40.7c1.2,0,2.3-1,2.3-2.3v-4.3c0-1.2-1-2.3-2.3-2.3s-2.3,1-2.3,2.3v4.3
		C30.2,39.7,31.2,40.7,32.5,40.7z"/>
	<path fill="#BE1E2D" d="M43,40.7c1.2,0,2.3-1,2.3-2.3v-4.3c0-1.2-1-2.3-2.3-2.3s-2.3,1-2.3,2.3v4.3C40.8,39.7,41.8,40.7,43,40.7z"
		/>
	<path fill="#BE1E2D" d="M21.9,52.7c1.2,0,2.3-1,2.3-2.3v-4.3c0-1.2-1-2.3-2.3-2.3s-2.3,1-2.3,2.3v4.3
		C19.7,51.7,20.7,52.7,21.9,52.7z"/>
	<path fill="#BE1E2D" d="M32.5,52.7c1.2,0,2.3-1,2.3-2.3v-4.3c0-1.2-1-2.3-2.3-2.3s-2.3,1-2.3,2.3v4.3
		C30.2,51.7,31.2,52.7,32.5,52.7z"/>
	<path fill="#BE1E2D" d="M43,52.7c1.2,0,2.3-1,2.3-2.3v-4.3c0-1.2-1-2.3-2.3-2.3s-2.3,1-2.3,2.3v4.3C40.8,51.7,41.8,52.7,43,52.7z"
		/>
	<path fill="#BE1E2D" d="M21.9,64.8c1.2,0,2.3-1,2.3-2.3v-4.3c0-1.2-1-2.3-2.3-2.3s-2.3,1-2.3,2.3v4.3
		C19.7,63.8,20.7,64.8,21.9,64.8z"/>
	<path fill="#BE1E2D" d="M32.5,64.8c1.2,0,2.3-1,2.3-2.3v-4.3c0-1.2-1-2.3-2.3-2.3s-2.3,1-2.3,2.3v4.3
		C30.2,63.8,31.2,64.8,32.5,64.8z"/>
	<path fill="#BE1E2D" d="M43,64.8c1.2,0,2.3-1,2.3-2.3v-4.3c0-1.2-1-2.3-2.3-2.3s-2.3,1-2.3,2.3v4.3C40.8,63.8,41.8,64.8,43,64.8z"
		/>
	<path fill="#BE1E2D" d="M21.9,76.8c1.2,0,2.3-1,2.3-2.3v-4.3c0-1.2-1-2.3-2.3-2.3s-2.3,1-2.3,2.3v4.3
		C19.7,75.8,20.7,76.8,21.9,76.8z"/>
	<path fill="#BE1E2D" d="M32.5,76.8c1.2,0,2.3-1,2.3-2.3v-4.3c0-1.2-1-2.3-2.3-2.3s-2.3,1-2.3,2.3v4.3
		C30.2,75.8,31.2,76.8,32.5,76.8z"/>
	<path fill="#BE1E2D" d="M43,76.8c1.2,0,2.3-1,2.3-2.3v-4.3c0-1.2-1-2.3-2.3-2.3s-2.3,1-2.3,2.3v4.3C40.8,75.8,41.8,76.8,43,76.8z"
		/>
	<path fill="#BE1E2D" d="M21.9,88.9c1.2,0,2.3-1,2.3-2.3v-4.3c0-1.2-1-2.3-2.3-2.3s-2.3,1-2.3,2.3v4.3
		C19.7,87.9,20.7,88.9,21.9,88.9z"/>
	<path fill="#BE1E2D" d="M32.5,88.9c1.2,0,2.3-1,2.3-2.3v-4.3c0-1.2-1-2.3-2.3-2.3s-2.3,1-2.3,2.3v4.3
		C30.2,87.9,31.2,88.9,32.5,88.9z"/>
	<path fill="#BE1E2D" d="M43,88.9c1.2,0,2.3-1,2.3-2.3v-4.3c0-1.2-1-2.3-2.3-2.3s-2.3,1-2.3,2.3v4.3C40.8,87.9,41.8,88.9,43,88.9z"
		/>
	<path fill="#BE1E2D" d="M21.9,100.9c1.2,0,2.3-1,2.3-2.3v-4.3c0-1.2-1-2.3-2.3-2.3s-2.3,1-2.3,2.3v4.3
		C19.7,99.9,20.7,100.9,21.9,100.9z"/>
	<path fill="#BE1E2D" d="M32.5,100.9c1.2,0,2.3-1,2.3-2.3v-4.3c0-1.2-1-2.3-2.3-2.3s-2.3,1-2.3,2.3v4.3
		C30.2,99.9,31.2,100.9,32.5,100.9z"/>
	<path fill="#BE1E2D" d="M43,100.9c1.2,0,2.3-1,2.3-2.3v-4.3c0-1.2-1-2.3-2.3-2.3s-2.3,1-2.3,2.3v4.3C40.8,99.9,41.8,100.9,43,100.9
		z"/>
</g>
</svg>
