<?xml version="1.0" encoding="utf-8"?>
<!-- Generator: Adobe Illustrator 18.1.1, SVG Export Plug-In . SVG Version: 6.00 Build 0)  -->
<svg version="1.1" id="Layer_1" xmlns="http://www.w3.org/2000/svg" xmlns:xlink="http://www.w3.org/1999/xlink" x="0px" y="0px"
	 viewBox="0 0 121.9 99.2" enable-background="new 0 0 121.9 99.2" xml:space="preserve">
<g>
	<path fill="#BE1E2D" d="M119.3,54.8c-1.4-1.8-4.8-4.7-11.5-2.9c-0.8,0.2-1.5,0.5-2.1,0.7l-15.1,6.5c-0.2-0.1-0.3-0.2-0.5-0.3
		c-2.5-1.4-5.6-1.5-8.4-0.1c-5.8,2.8-11,0.9-11.8,0.6c-2.3-1.4-4.7-2.6-7-3.6c-8.5-3.5-18.1-2.9-26.2,1.6v-0.3c0-1.2-1-2.3-2.3-2.3
		h-9.8v-6.8c0-1.2-1-2.3-2.3-2.3H3.6c-1.2,0-2.3,1-2.3,2.3s1,2.3,2.3,2.3h16.6v43.8H3.6c-1.2,0-2.3,1-2.3,2.3s1,2.3,2.3,2.3h18.9
		c1.2,0,2.3-1,2.3-2.3v-6h9.8c1.2,0,2.3-1,2.3-2.3V82c3.8-0.6,14.9-1.8,31.5-0.9c6,0.3,12-1,17.4-3.8l32.5-17.1
		c0.9-0.5,1.6-1.4,1.8-2.4C120.2,56.7,120,55.7,119.3,54.8z M32.2,85.6h-7.5V59.1h7.5V85.6z M83.6,73.3c-4.7,2.5-9.9,3.6-15.1,3.3
		c-16.3-0.9-27.2,0.2-31.8,0.8v-15c7.3-4.9,16.6-5.9,24.5-2.7c2.1,0.9,4.3,2,6.4,3.3c0.1,0.1,0.2,0.1,0.3,0.1
		c0.3,0.1,7.6,3.4,15.8-0.6c1.4-0.7,3-0.7,4.2,0c0.4,0.2,0.7,0.5,1,0.8l-3.3,2.2c-3.9,2.7-8.5,4.1-13.2,4.1H67c-1.2,0-2.3,1-2.3,2.3
		s1,2.3,2.3,2.3h5.4c5.6,0,11.1-1.7,15.7-4.8l3.9-2.7c1.3-0.9,1.9-2.5,1.5-4l13.9-5.9c0.4-0.2,0.9-0.4,1.4-0.5
		c2.5-0.7,4.5-0.5,5.9,0.5L83.6,73.3z"/>
	<path fill="#BE1E2D" d="M52.7,19.8c3.5,0,6.3-2.8,6.3-6.3s-2.8-6.3-6.3-6.3s-6.3,2.8-6.3,6.3S49.2,19.8,52.7,19.8z M52.7,11.6
		c1,0,1.8,0.8,1.8,1.8s-0.8,1.8-1.8,1.8s-1.8-0.8-1.8-1.8S51.6,11.6,52.7,11.6z"/>
	<path fill="#BE1E2D" d="M62.2,11.8c0.3-0.1,0.5-0.2,0.8-0.2c1,0,1.8,0.8,1.8,1.8S64,15.3,63,15.3c-0.3,0-0.5-0.1-0.8-0.2
		c-1.1-0.5-2.5-0.1-3,1.1s-0.1,2.5,1.1,3c0.9,0.4,1.8,0.6,2.7,0.6c3.5,0,6.3-2.8,6.3-6.3S66.5,7.1,63,7.1c-0.9,0-1.9,0.2-2.7,0.6
		c-1.1,0.5-1.6,1.9-1.1,3C59.8,11.9,61.1,12.4,62.2,11.8z"/>
	<path fill="#BE1E2D" d="M48.5,30.2h7.4c1.2,0,2.3-1,2.3-2.3s-1-2.3-2.3-2.3h-7.4c-1.2,0-2.3,1-2.3,2.3S47.2,30.2,48.5,30.2z"/>
	<path fill="#BE1E2D" d="M60.3,27.9c0,1.2,1,2.3,2.3,2.3H70c1.2,0,2.3-1,2.3-2.3s-1-2.3-2.3-2.3h-7.4C61.3,25.7,60.3,26.7,60.3,27.9
		z"/>
	<path fill="#BE1E2D" d="M76.6,30.2H84c1.2,0,2.3-1,2.3-2.3s-1-2.3-2.3-2.3h-7.4c-1.2,0-2.3,1-2.3,2.3S75.3,30.2,76.6,30.2z"/>
	<path fill="#BE1E2D" d="M98.1,25.7h-7.4c-1.2,0-2.3,1-2.3,2.3s1,2.3,2.3,2.3h7.4c1.2,0,2.3-1,2.3-2.3S99.3,25.7,98.1,25.7z"/>
	<path fill="#BE1E2D" d="M89.3,19.8h6.4c2.5,0,4.5-2,4.5-4.5v-3.6c0-2.5-2-4.5-4.5-4.5h-6.4c-2.5,0-4.5,2-4.5,4.5v3.6
		C84.7,17.8,86.8,19.8,89.3,19.8z M89.3,11.6l6.5,0v3.6c0,0,0,0,0,0l-6.5,0L89.3,11.6z"/>
	<path fill="#BE1E2D" d="M46.4,45.6h53.7c4.2,0,7.7-3.4,7.7-7.7V8.4c0-4.2-3.4-7.7-7.7-7.7H46.4c-4.2,0-7.7,3.4-7.7,7.7v29.5
		C38.7,42.1,42.2,45.6,46.4,45.6z M100.1,41.1H46.4c-1.7,0-3.1-1.3-3.2-3h60C103.2,39.7,101.8,41.1,100.1,41.1z M46.4,5.3h53.7
		c1.8,0,3.2,1.4,3.2,3.2v25.1H43.2V8.4C43.2,6.7,44.7,5.3,46.4,5.3z"/>
</g>
</svg>
