<svg xmlns="http://www.w3.org/2000/svg" viewBox="0 0 141.7 85"><path fill="#BE1E2D" d="M43.9 21.9L16 2v9l19.3 13.7v47.4l8.6 6.2z"/><path fill="#E6E6E6" d="M33 25.7L5.1 5.7v43.4l8.7 6.2v12.9L33 82z"/><path d="M65.7 23.1v2.4h-4.2v12.1h-3V25.5h-4.2v-2.4h11.4zm13.1 14.5h-2.3c-.3 0-.5-.1-.6-.2-.2-.1-.3-.3-.4-.5l-1-2.8h-5.8l-1 2.8c-.1.2-.2.3-.4.5-.2.1-.4.2-.6.2h-2.4L70 23.1h3.1l5.7 14.5zm-9.4-5.5h4.3l-1.6-4.4c-.1-.2-.2-.5-.3-.8s-.2-.6-.3-1c-.1.4-.2.7-.3 1-.1.3-.2.6-.3.8l-1.5 4.4zm10.7 5.5V23.1h5.1c1 0 1.8.1 2.5.3.7.2 1.3.4 1.7.8.4.3.8.7 1 1.2.2.5.3 1 .3 1.6 0 .3 0 .7-.1 1s-.2.6-.4.9c-.2.3-.5.5-.8.7-.3.2-.7.4-1.1.6 1.9.5 2.9 1.5 2.9 3.2 0 .6-.1 1.2-.4 1.7-.2.5-.6 1-1 1.4-.5.4-1 .7-1.7.9-.7.2-1.4.3-2.3.3h-5.7zm3-8.3h2c.4 0 .8 0 1.1-.1.3-.1.6-.2.8-.3.2-.2.4-.4.5-.6.1-.3.2-.6.2-.9 0-.4 0-.7-.1-.9-.1-.3-.2-.5-.4-.6s-.5-.3-.8-.3-.7-.1-1.1-.1h-2.1v3.8zm0 2.1v4h2.6c.5 0 .9-.1 1.2-.2.3-.1.6-.3.7-.5s.3-.4.4-.7.1-.5.1-.8c0-.3 0-.6-.1-.8-.1-.2-.2-.4-.4-.6-.2-.2-.4-.3-.8-.4-.3-.1-.7-.1-1.1-.1h-2.6zm16.2 3.8c.5 0 .9-.1 1.3-.2.4-.2.7-.4 1-.7.3-.3.5-.7.6-1.1.1-.4.2-.9.2-1.4v-8.6h3v8.6c0 .9-.1 1.7-.4 2.4-.3.7-.7 1.4-1.2 1.9s-1.2 1-1.9 1.3c-.8.3-1.6.5-2.5.5-.9 0-1.8-.2-2.6-.5s-1.4-.7-1.9-1.3c-.5-.5-.9-1.2-1.2-1.9-.3-.7-.4-1.5-.4-2.4v-8.6h3v8.6c0 .5.1 1 .2 1.4.1.4.3.8.6 1.1.3.3.6.5 1 .7.3.1.7.2 1.2.2zm12 0h5.6v2.4h-8.6V23.1h3v12.1zm20.1 2.4h-2.3c-.3 0-.5-.1-.6-.2-.2-.1-.3-.3-.4-.5l-1-2.8h-5.8l-1 2.8c-.1.2-.2.3-.3.5s-.4.2-.6.2H117l5.7-14.5h3.1l5.6 14.5zm-9.3-5.5h4.3l-1.6-4.4c-.1-.2-.2-.5-.3-.8s-.2-.6-.3-1c-.1.4-.2.7-.3 1-.1.3-.2.6-.3.8l-1.5 4.4zM57.2 50.3v5.5h-3V41.4h4.6c1 0 1.9.1 2.6.3.7.2 1.3.5 1.8.9s.8.8 1 1.3.3 1.1.3 1.7c0 .5-.1.9-.2 1.4-.1.4-.3.8-.6 1.2-.3.4-.6.7-1 .9s-.8.5-1.3.7c.2.1.4.2.5.4l.5.5 3.4 5.2h-2.7c-.5 0-.9-.2-1.1-.6l-2.8-4.4c-.1-.2-.2-.3-.4-.4s-.3-.1-.6-.1h-1zm0-2.1h1.5c.5 0 .9-.1 1.3-.2s.6-.3.9-.5.4-.5.5-.8.2-.6.2-1c0-.7-.2-1.2-.7-1.6-.5-.4-1.2-.6-2.1-.6h-1.6v4.7z"/><path d="M79.9 55.9h-2.3c-.3 0-.5-.1-.6-.2s-.3-.3-.4-.5l-1-2.8h-5.8l-1 2.8c-.1.2-.2.3-.4.5-.2.1-.4.2-.6.2h-2.4l5.7-14.5h3.1l5.7 14.5zm-9.4-5.5h4.3L73.2 46c-.1-.2-.2-.5-.3-.8s-.2-.7-.3-1c-.1.4-.2.7-.3 1s-.2.6-.3.8l-1.5 4.4zm18.6-6.3c-.1.2-.2.3-.3.3-.1.1-.2.1-.4.1-.1 0-.3-.1-.5-.2l-.6-.3c-.2-.1-.5-.2-.8-.3-.3-.1-.6-.2-1-.2-.7 0-1.2.2-1.6.5-.3.3-.5.7-.5 1.2 0 .3.1.6.3.8.2.2.4.4.8.5.3.2.7.3 1.1.4s.8.3 1.2.4c.4.1.8.3 1.2.5s.7.4 1.1.7c.3.3.6.7.8 1.1.2.4.3.9.3 1.5 0 .7-.1 1.3-.3 1.9-.2.6-.6 1.1-1 1.5s-1 .8-1.6 1c-.8.4-1.5.5-2.3.5-.5 0-.9 0-1.4-.1-.5-.1-.9-.2-1.3-.4l-1.2-.6c-.4-.2-.7-.5-1-.8l.9-1.4.3-.3c.1-.1.2-.1.4-.1s.4.1.6.2c.2.1.4.3.7.4.3.2.6.3.9.4.3.1.8.2 1.2.2.7 0 1.2-.2 1.6-.5.4-.3.6-.8.6-1.4 0-.4-.1-.7-.3-.9-.2-.2-.4-.4-.7-.6s-.7-.3-1-.4c-.4-.1-.8-.2-1.2-.4-.4-.1-.8-.3-1.2-.5-.4-.2-.7-.4-1-.7s-.6-.7-.7-1.1c-.2-.5-.3-1-.3-1.7 0-.5.1-1.1.3-1.6.2-.5.5-1 .9-1.4.4-.4.9-.7 1.5-1 .6-.2 1.3-.4 2.1-.4.9 0 1.7.1 2.4.4.7.3 1.4.6 1.9 1.1l-.9 1.7zm15.6 11.8h-2.3c-.3 0-.5-.1-.6-.2s-.3-.3-.4-.5l-1-2.8h-5.8l-1 2.8c-.1.2-.2.3-.3.5s-.4.2-.6.2h-2.4L96 41.4h3l5.7 14.5zm-9.4-5.5h4.3L98 45.9c-.1-.2-.2-.5-.3-.8s-.2-.7-.3-1c-.1.4-.2.7-.3 1s-.2.6-.3.8l-1.5 4.5z"/><path d="M54.7 64.6c.2-.3.4-.5.7-.6.2-.1.5-.2.9-.2.6 0 1 .2 1.3.5.3.4.4.9.4 1.6 0 .8-.2 1.4-.5 1.8-.3.4-.8.6-1.4.6-.7 0-1.2-.2-1.5-.7-.3-.5-.5-1.2-.5-2.2 0-.5 0-1 .1-1.3s.1-.7.2-.9c.1-.3.2-.5.4-.6.1-.1.3-.3.5-.4.2-.1.4-.1.6-.2.2 0 .4-.1.7-.1.3 0 .6-.1.7-.1s.3-.1.4-.2l.1.6c-.1.1-.1.1-.2.1s-.2.1-.3.1c-.1 0-.2 0-.4.1h-.5c-.3 0-.5 0-.7.1-.2 0-.4.1-.5.3-.1.1-.3.3-.3.5-.2.5-.2.8-.2 1.2zm.1 1.5c0 .2 0 .4.1.7s.1.4.2.6.2.3.4.4c.2.1.3.1.5.1.4 0 .7-.1.9-.4.2-.3.3-.7.3-1.3 0-.2 0-.4-.1-.6 0-.2-.1-.4-.2-.5l-.3-.3c-.1-.1-.3-.1-.5-.1-.5 0-.8.1-1 .4s-.3.5-.3 1zm4.2-1.9c.2-.1.5-.2.8-.3.3-.1.6-.1.9-.1.3 0 .6 0 .8.1.2.1.3.2.4.3.1.1.2.3.2.4v3.2c0 .2.1.4.1.5h-.5l-.2-.6c-.1.1-.1.2-.2.2s-.2.2-.3.2c-.1.1-.2.1-.4.2-.2 0-.3.1-.5.1s-.4 0-.5-.1c-.2-.1-.3-.1-.4-.3-.1-.1-.2-.2-.3-.4-.1-.2-.1-.3-.1-.5 0-.3.1-.5.2-.7.1-.2.3-.3.5-.4.2-.1.4-.2.7-.2.3 0 .6-.1.9-.1h.4v-.5c0-.3-.1-.6-.2-.7-.1-.1-.4-.2-.7-.2h-.3c-.1 0-.2 0-.4.1-.1 0-.2.1-.4.1-.1 0-.2.1-.3.1l-.2-.4zm1.3 3.6c.2 0 .3 0 .4-.1s.2-.1.3-.2c.1-.1.2-.1.2-.2.1-.1.1-.2.1-.2v-.7h-1.1c-.2 0-.3.1-.5.1-.1.1-.2.1-.3.2s-.1.2-.1.4.1.4.2.5c.4.1.6.2.8.2zm6-1.5h-2v2h-.7v-4.5h.7v1.9h2v-1.9h.7v4.5h-.7v-2zm3.3 0h-.4v2h-.7v-4.5h.7v2l.4-.1 1.4-1.9h.8l-1.4 1.8-.4.3.5.4 1.5 2h-.9l-1.5-2zm3.1-2.5h.5l.1.5c.1-.2.3-.4.5-.5.2-.1.5-.2.8-.2.6 0 1 .2 1.3.5.3.4.4.9.4 1.7 0 .4 0 .7-.1 1-.1.3-.2.6-.4.8-.2.2-.4.4-.7.5-.3.1-.5.2-.9.2h-.5c-.1 0-.3-.1-.4-.1v1.9h-.7v-6.3zm1.8.6c-.3 0-.5.1-.7.2-.2.2-.3.4-.4.7v2.2c.1.1.2.1.4.2.1 0 .3.1.5.1.4 0 .7-.2 1-.5.2-.3.4-.8.4-1.4 0-.2 0-.5-.1-.7 0-.2-.1-.4-.2-.5-.1-.1-.2-.3-.4-.3h-.5zm2.8 1.7c0-.8.2-1.3.5-1.8.3-.4.8-.6 1.5-.6.3 0 .6.1.9.2.2.1.5.3.6.5s.3.5.4.7.1.6.1 1c0 .8-.2 1.3-.5 1.8-.3.4-.8.6-1.5.6-.3 0-.6-.1-.9-.2-.2-.1-.5-.3-.6-.5s-.3-.5-.4-.7-.1-.7-.1-1zm.8 0c0 .2 0 .4.1.7s.1.4.2.5.2.3.4.4c.2.1.3.1.6.1.8 0 1.2-.6 1.2-1.7 0-.2 0-.5-.1-.7s-.1-.4-.2-.5c-.1-.2-.2-.3-.4-.4-.2-.1-.3-.1-.6-.1-.8-.1-1.2.5-1.2 1.7zm7-1.6h-1.4v3.9H83v-3.9h-1.4v-.6h3.5v.6zm3.7 3.5l-.6.3c-.2.1-.5.1-.8.1-.3 0-.6-.1-.9-.2-.2-.1-.4-.3-.6-.5-.2-.2-.3-.5-.3-.7-.1-.3-.1-.6-.1-1 0-.8.2-1.3.5-1.8.3-.4.8-.6 1.4-.6.3 0 .5 0 .7.1.2 0 .4.1.5.2l-.2.6c-.1-.1-.3-.1-.5-.2s-.3-.1-.5-.1c-.9 0-1.3.6-1.3 1.7 0 .2 0 .4.1.7s.1.4.2.5c.1.2.2.3.4.4.2.1.4.1.6.1.2 0 .4 0 .6-.1.2-.1.3-.1.4-.2l.4.7zm3.7-3.5h-1.4v3.9h-.7v-3.9H89v-.6h3.5v.6zm.7-.7h1.6c.6 0 1 .1 1.3.3.3.2.4.5.4.8 0 .2-.1.4-.2.6s-.3.3-.6.4c.4.1.6.2.7.4.1.2.2.4.2.7 0 .5-.2.8-.5 1s-.8.3-1.5.3h-1.3v-4.5zm1.6 1.9c.1 0 .2 0 .3-.1.1 0 .2-.1.3-.1l.2-.2c.1-.1.1-.2.1-.3 0-.2-.1-.4-.2-.5-.1-.1-.4-.1-.8-.1h-.8v1.3h.9zm-.9 2h.7c.4 0 .7-.1.9-.2.2-.1.3-.3.3-.6 0-.2-.1-.4-.2-.5-.2-.1-.5-.2-.9-.2h-.8v1.5zm3.5-1.6c0-.8.2-1.3.5-1.8.3-.4.8-.6 1.5-.6.3 0 .6.1.9.2.2.1.5.3.6.5s.3.5.4.7.1.6.1 1c0 .8-.2 1.3-.5 1.8-.3.4-.8.6-1.5.6-.3 0-.6-.1-.9-.2-.2-.1-.5-.3-.6-.5s-.3-.5-.4-.7-.1-.7-.1-1zm.8 0c0 .2 0 .4.1.7s.1.4.2.5.2.3.4.4c.2.1.3.1.6.1.8 0 1.2-.6 1.2-1.7 0-.2 0-.5-.1-.7s-.1-.4-.2-.5c-.1-.2-.2-.3-.4-.4-.2-.1-.3-.1-.6-.1-.8-.1-1.2.5-1.2 1.7zM56.3 77.4c-.1 0-.2.1-.3.1h-.3c-.5 0-1-.2-1.3-.6s-.4-1-.4-1.8.2-1.3.5-1.7c.3-.4.8-.6 1.4-.6h.4V71h.7v1.8h.5c.6 0 1 .2 1.3.5.3.3.4.9.4 1.7 0 .4 0 .7-.1 1s-.2.6-.4.8-.3.4-.6.5c-.2.1-.5.2-.8.2h-.5v1.8h-.7v-1.9zm-.4-.6h.4v-3.4h-.4c-.4 0-.7.1-.9.4-.2.3-.3.7-.3 1.3 0 .3 0 .5.1.7s.1.4.2.6c.1.2.2.3.4.4h.5zm1.5-3.4H57v3.4h.4c.4 0 .7-.2.9-.5.2-.3.3-.8.3-1.4 0-.5-.1-.9-.3-1.2s-.5-.3-.9-.3zm5.8 1.3v-.6l-.4.6-2 2.6h-.4v-4.5h.7V76l.4-.6 2-2.7h.4v4.5h-.7v-2.5zm2.5.6v-.6h.6c.1 0 .2 0 .3-.1.1 0 .2-.1.3-.1.1-.1.2-.1.2-.2s.1-.2.1-.3c0-.2-.1-.4-.2-.5-.2-.1-.4-.1-.7-.1-.2 0-.4 0-.6.1-.2.1-.3.1-.5.2l-.2-.5.6-.3c.2-.1.5-.1.9-.1 1 0 1.5.4 1.5 1.1 0 .2-.1.4-.2.6s-.3.3-.6.4c.4.1.6.2.7.4.1.2.2.4.2.7 0 .2 0 .4-.1.5s-.2.3-.4.4l-.6.3c-.2.1-.5.1-.8.1-.3 0-.6 0-.8-.1-.2-.1-.4-.1-.5-.2l.2-.6c.1.1.3.1.5.2.2 0 .4.1.6.1.4 0 .6-.1.8-.2.2-.1.3-.3.3-.6 0-.2-.1-.4-.3-.5s-.5-.2-.9-.2h-.4zm6-1.8h-1.3c0 .3 0 .5-.1.8 0 .3 0 .6-.1.9s-.1.6-.1.8c-.1.3-.1.5-.2.7-.1.2-.2.4-.3.5-.1.1-.3.2-.5.2h-.3c-.1 0-.2 0-.2-.1l.1-.6h.2c.1 0 .2-.1.3-.2.1-.1.2-.3.3-.6.1-.3.1-.7.2-1.2 0-.5.1-1.2.1-2h2.7v4.5h-.7v-3.7zm4.9 1.2v-.6l-.4.6-2 2.6h-.4v-4.5h.7V76l.4-.6 2-2.7h.4v4.5h-.7v-2.5zm6.2 3.8h-.5l-.1-1.1h-3.4v-4.5h.7v3.9h2v-3.9h.7v3.9h.6v1.7z" fill="#6D6E71"/><path fill="#BE1E2D" d="M5.1 51.5l6.8 15.4V56.4z"/></svg>