<svg xmlns="http://www.w3.org/2000/svg" viewBox="0 0 56.7 70.9"><path fill="#BE1E2D" d="M27.9 1.2C14.7 1.2 3.8 12.1 3.8 25.3c0 12.8 21.9 43.2 22.8 44.5.3.4.8.7 1.3.7s1-.2 1.3-.7C30.1 68.6 52 38.1 52 25.3 52 12.1 41.2 1.2 27.9 1.2z"/><path fill="#FFF" d="M27.9 8.7c-9.2 0-16.7 7.5-16.7 16.7s7.5 16.7 16.7 16.7 16.7-7.5 16.7-16.7S37.1 8.7 27.9 8.7zm0 30.2c-2.7 0-5.1-.8-7.2-2.1.1-3.5 3.3-7.6 7.2-7.6 3.9 0 7.1 4.1 7.2 7.6-2 1.3-4.5 2.1-7.2 2.1zm0-13c-2 0-3.8-2.4-3.8-4.9 0-2.4 1.7-4.3 3.8-4.3s3.8 2 3.8 4.3c.1 2.5-1.8 4.9-3.8 4.9zM38 34.4c-.8-2.9-2.9-5.7-5.6-7.2C34 25.7 35 23.4 35 21c0-4.1-3.1-7.5-7-7.5s-7 3.4-7 7.5c0 2.4 1 4.7 2.6 6.2-2.7 1.5-4.8 4.3-5.6 7.2-2.2-2.4-3.5-5.6-3.5-9 0-7.5 6.1-13.5 13.5-13.5S41.5 18 41.5 25.4c-.1 3.4-1.4 6.6-3.5 9z"/></svg>