<?xml version="1.0" encoding="utf-8"?>
<!-- Generator: Adobe Illustrator 18.1.1, SVG Export Plug-In . SVG Version: 6.00 Build 0)  -->
<svg version="1.1" id="Layer_1" xmlns="http://www.w3.org/2000/svg" xmlns:xlink="http://www.w3.org/1999/xlink" x="0px" y="0px"
	 viewBox="0 0 127.6 119.1" enable-background="new 0 0 127.6 119.1" xml:space="preserve">
<path fill="#BE1E2D" d="M117.4,106v-5.2v-4.5v-4.2c0-2.2-1.3-4.2-3.3-5V56.1c1.9-0.9,3.3-2.8,3.3-5v-4.2v-4.5v-3h6.4
	c1,0,1.9-0.7,2.2-1.7s-0.2-2-1.1-2.5L64.8,1.8c-0.7-0.4-1.5-0.4-2.2,0L2.4,35.1c-0.9,0.5-1.3,1.5-1.1,2.5s1.2,1.7,2.2,1.7h6.4v3v4.5
	V51c0,2.2,1.3,4.2,3.3,5v31.1c-1.9,0.9-3.3,2.8-3.3,5v4.2v4.5v5.2c-4.9,0.8-8.7,5-8.7,10.1v2.4h124.8v-2.4
	C126.1,111,122.3,106.8,117.4,106z M20.5,53.3h2.4c0.6,1.2,1.6,2.2,2.8,2.8v31.1c-1.2,0.6-2.2,1.5-2.8,2.8h-2.4
	c-0.6-1.2-1.6-2.2-2.8-2.8V56.1C18.9,55.5,19.9,54.5,20.5,53.3z M30.2,87.1V56.1c1.9-0.9,3.3-2.8,3.3-5v-4.2h18.4V51
	c0,2.2,1.3,4.2,3.3,5v31.1c-1.9,0.9-3.3,2.8-3.3,5v4.2H33.5v-4.2C33.5,89.9,32.2,88,30.2,87.1z M59.7,56.1c1.2-0.6,2.2-1.5,2.8-2.8
	h2.4c0.6,1.2,1.6,2.2,2.8,2.8v31.1c-1.2,0.6-2.2,1.5-2.8,2.8h-2.4c-0.6-1.2-1.6-2.2-2.8-2.8V56.1z M71,51c0,0.6-0.5,1-1,1
	c-0.6,0-1-0.5-1-1v-2.3H58.4V51c0,0.6-0.5,1-1,1s-1-0.5-1-1v-4.2H71V51z M56.4,92.2c0-0.6,0.5-1,1-1s1,0.5,1,1v2.3h10.5v-2.3
	c0-0.6,0.5-1,1-1c0.6,0,1,0.5,1,1v4.2H56.4V92.2z M72.2,87.1V56.1c1.9-0.9,3.3-2.8,3.3-5v-4.2h18.4V51c0,2.2,1.3,4.2,3.3,5v31.1
	c-1.9,0.9-3.3,2.8-3.3,5v4.2H75.5v-4.2C75.5,89.9,74.1,88,72.2,87.1z M106.9,89.9h-2.4c-0.6-1.2-1.6-2.2-2.8-2.8V56.1
	c1.2-0.6,2.2-1.5,2.8-2.8h2.4c0.6,1.2,1.6,2.2,2.8,2.8v31.1C108.4,87.7,107.4,88.7,106.9,89.9z M98.4,92.2c0-0.6,0.5-1,1-1
	c0.6,0,1,0.5,1,1v2.3h10.5v-2.3c0-0.6,0.5-1,1-1c0.6,0,1,0.5,1,1v4.2H98.4V92.2z M112.9,51c0,0.6-0.5,1-1,1c-0.6,0-1-0.5-1-1v-2.3
	h-10.5V51c0,0.6-0.5,1-1,1c-0.6,0-1-0.5-1-1v-4.2h14.6V51z M63.7,6.3l51.5,28.5H12.2L63.7,6.3z M14.4,39.4h98.5v3H93.9H75.5H51.9
	H33.5H14.4V39.4z M29,46.9V51c0,0.6-0.5,1-1,1c-0.6,0-1-0.5-1-1v-2.3H16.5V51c0,0.6-0.5,1-1,1c-0.6,0-1-0.5-1-1v-4.2H29z M14.4,92.2
	c0-0.6,0.5-1,1-1c0.6,0,1,0.5,1,1v2.3H27v-2.3c0-0.6,0.5-1,1-1c0.6,0,1,0.5,1,1v4.2H14.4V92.2z M33.5,100.8h18.4h23.6h18.4h19.1v5.1
	H14.4v-5.1H33.5z M6.2,114.1c0.8-2.2,2.9-3.7,5.4-3.7h104.3c2.4,0,4.5,1.5,5.4,3.7H6.2z"/>
</svg>
