<?xml version="1.0" encoding="utf-8"?>
<!-- Generator: Adobe Illustrator 18.1.1, SVG Export Plug-In . SVG Version: 6.00 Build 0)  -->
<svg version="1.1" id="Layer_1" xmlns="http://www.w3.org/2000/svg" xmlns:xlink="http://www.w3.org/1999/xlink" x="0px" y="0px"
	 viewBox="0 0 127.6 127.6" enable-background="new 0 0 127.6 127.6" xml:space="preserve">
<g>
	<path fill="#FFFFFF" d="M54.4,69v-4.1l5.8-6l7.3,2.1c0,0,0.1,0,0.1,0c0.7,0.1,1.4,0.6,2.2,1.2c1.2,1,2.1,2.5,2.4,4l1.9,9.4
		c0.2,1.1,1.2,1.8,2.2,1.8c0.1,0,0.3,0,0.4,0c1.2-0.2,2-1.4,1.8-2.6l-1.9-9.4c-0.5-2.6-1.9-4.9-4-6.6c-1.3-1.1-2.6-1.8-4-2.1
		L61,54.5l-0.2-1.7c1.8-1.7,3.3-4,4.2-6.6c1.8-0.9,3-3,3-5.5c0-2.1-0.9-4-2.2-5c-0.1-1.2-0.3-3-0.9-4.9c0-0.1,0-0.1-0.1-0.2
		c-0.6-1.8-1.5-3.7-3.1-5.3c-2.4-2.5-5.6-3.7-9.5-3.7c-3.9,0-7.2,1.3-9.5,3.7c-1.6,1.6-2.5,3.6-3.1,5.4c0,0.1,0,0.1-0.1,0.2
		c-0.6,1.9-0.8,3.7-0.9,4.9c-1.3,1.1-2.2,2.9-2.2,5c0,2.5,1.2,4.6,3,5.5c0.9,2.6,2.3,4.8,4.2,6.6l-0.2,1.7l-7.6,2.2
		c-1.4,0.3-2.7,1-4,2.1c-2,1.7-3.4,4-4,6.6l-1.9,9.4c-0.2,1.2,0.5,2.4,1.8,2.6c0.1,0,0.3,0,0.4,0c1.1,0,2-0.7,2.2-1.8l1.9-9.4
		c0.3-1.6,1.2-3,2.4-4c0.8-0.6,1.5-1,2.2-1.2c0,0,0.1,0,0.1,0l7.3-2.1l5.8,6V69c0,1.2,1,2.3,2.3,2.3S54.4,70.3,54.4,69z M58.4,28.3
		c0.5,0.5,0.9,1.1,1.2,1.7c-1.1,0.3-2.3,0.3-3.6,0.2c-1.6-0.2-3-0.9-4.7-1.7c-0.5-0.2-1-0.5-1.5-0.7c-0.8-0.4-1.6-0.6-2.4-0.8
		c1.3-0.7,2.8-1,4.6-1C54.8,26,56.9,26.7,58.4,28.3z M43.3,43.9c-0.2-0.9-1-1.6-1.9-1.7c-0.2-0.1-0.5-0.6-0.5-1.5
		c0-0.9,0.4-1.4,0.5-1.5c0.1,0,0.2-0.1,0.2-0.1c0,0,0.1,0,0.1-0.1c0.1,0,0.2-0.1,0.3-0.2c0,0,0.1,0,0.1-0.1c0.1-0.1,0.2-0.1,0.2-0.2
		c0,0,0.1,0,0.1-0.1c0.1-0.1,0.1-0.2,0.2-0.2c0,0,0-0.1,0.1-0.1c0-0.1,0.1-0.2,0.1-0.3c0,0,0-0.1,0.1-0.1c0-0.1,0.1-0.2,0.1-0.3
		c0-0.1,0-0.1,0-0.2c0-0.1,0-0.2,0-0.3c0,0,0-0.1,0-0.1c0,0-0.1-2.3,0.7-4.7c0.2-0.4,0.6-0.7,1.1-0.8c1-0.4,2.3,0.1,3.3,0.5
		c0.5,0.2,0.9,0.4,1.4,0.6c1.8,0.9,3.7,1.8,6.1,2.1c0.6,0.1,1.3,0.1,1.9,0.1c1.3,0,2.4-0.2,3.6-0.5c0.2,1.3,0.2,2.4,0.2,2.6
		c-0.1,1,0.5,1.8,1.4,2.2c0.1,0,0.2,0.1,0.3,0.1c0.2,0.1,0.5,0.6,0.5,1.5c0,0.9-0.4,1.4-0.5,1.5c-0.9,0.1-1.7,0.8-2,1.7
		c-0.7,2.6-2.1,4.8-3.9,6.2c-0.6,0.5-0.9,1.3-0.9,2l0.4,3.2c0,0.2,0.1,0.5,0.2,0.7l-4.6,4.7L47.6,56c0.1-0.2,0.1-0.5,0.2-0.7
		l0.4-3.2c0.1-0.8-0.2-1.6-0.9-2C45.4,48.7,44,46.5,43.3,43.9z"/>
	<path fill="#FFFFFF" d="M99.3,52.4c0-26-21.2-47.2-47.2-47.2c-26,0-47.2,21.2-47.2,47.2c0,26,21.2,47.2,47.2,47.2
		C78.2,99.6,99.3,78.5,99.3,52.4z M9.4,52.4c0-23.6,19.2-42.7,42.7-42.7c23.6,0,42.7,19.2,42.7,42.7c0,23.6-19.2,42.7-42.7,42.7
		C28.6,95.1,9.4,76,9.4,52.4z"/>
	<path fill="#FFFFFF" d="M119.3,108L96.6,85.3c6.5-8.9,10.4-19.9,10.4-31.7c0-1.2-1-2.3-2.3-2.3s-2.3,1-2.3,2.3
		c0,27.2-22.1,49.2-49.2,49.2c-1.2,0-2.3,1-2.3,2.3s1,2.3,2.3,2.3c11.9,0,22.8-3.9,31.7-10.4l22.7,22.7c1.6,1.6,3.7,2.4,5.8,2.4
		s4.2-0.8,5.8-2.4c1.5-1.5,2.4-3.6,2.4-5.8S120.8,109.6,119.3,108z M116.1,116.4c-1.4,1.4-3.8,1.4-5.2,0L88.6,94.1
		c1.9-1.6,3.6-3.4,5.2-5.2l22.3,22.3c0.7,0.7,1.1,1.6,1.1,2.6S116.8,115.7,116.1,116.4z"/>
</g>
</svg>
