<?xml version="1.0" encoding="utf-8"?>
<!-- Generator: Adobe Illustrator 18.1.1, SVG Export Plug-In . SVG Version: 6.00 Build 0)  -->
<svg version="1.1" id="Layer_1" xmlns="http://www.w3.org/2000/svg" xmlns:xlink="http://www.w3.org/1999/xlink" x="0px" y="0px"
	 viewBox="0 0 127.6 127.6" enable-background="new 0 0 127.6 127.6" xml:space="preserve">
<g>
	<path fill="#FFFFFF" d="M96.5,15.8v-5.6c0-2.9-2.4-5.3-5.3-5.3H35.4c-2.9,0-5.3,2.4-5.3,5.3v5.6c0,1.2,1,2.3,2.3,2.3h2.2
		c-2,7.4-4,26.4,20.1,41.7c0.5,0.3,1.2,0.8,1.7,1.3c0.9,0.9,1.7,1.9,1.7,2.6c0,0.3-0.1,0.6-0.3,1c-0.6,1.1-2,2.3-3.1,2.9
		c-16.7,10.6-20.9,22.9-21.2,32c0,0.3,0,0.5,0,0.8c0,1,0,2,0.1,2.9c0,0.2,0,0.5,0.1,0.7c0,0.4,0.1,0.9,0.2,1.3
		c0.2,1.6,0.5,2.9,0.8,4h-2.2c-1.2,0-2.3,1-2.3,2.3v5.6c0,2.9,2.4,5.3,5.3,5.3h55.8c2.9,0,5.3-2.4,5.3-5.3v-5.6c0-1.2-1-2.3-2.3-2.3
		h-2.2c2-7.4,4-26.4-20.1-41.7c-0.5-0.3-1.2-0.8-1.7-1.3c-0.9-0.9-1.7-1.9-1.7-2.6c0-1.2,2-3,3.5-3.9C96.1,44.4,94.1,25.5,92.1,18
		h2.2C95.5,18,96.5,17,96.5,15.8z M34.6,10.2c0-0.4,0.4-0.8,0.8-0.8h55.8c0.4,0,0.8,0.4,0.8,0.8v3.3h-3H37.6h-3V10.2z M92,117
		c0,0.4-0.4,0.8-0.8,0.8H35.4c-0.4,0-0.8-0.4-0.8-0.8v-3.3h3c0,0,0,0,0,0c0,0,0,0,0,0h51.3c0,0,0,0,0,0c0,0,0,0,0,0h3V117z M64,63.6
		c0,4.2,5,7.4,5.6,7.7c0.8,0.5,1.6,1,2.3,1.5c0.2,0.2,0.5,0.3,0.7,0.5c0.5,0.3,1,0.7,1.4,1c0.3,0.2,0.5,0.4,0.8,0.6
		c0.4,0.3,0.8,0.6,1.2,1c0.2,0.2,0.5,0.4,0.7,0.6c0.4,0.3,0.7,0.6,1.1,0.9c0.2,0.2,0.5,0.4,0.7,0.6c0.3,0.3,0.7,0.7,1,1
		c0.2,0.2,0.4,0.4,0.6,0.6c0.3,0.4,0.7,0.7,1,1.1c0.1,0.2,0.3,0.3,0.4,0.5c0.4,0.5,0.9,1,1.2,1.6c0,0.1,0.1,0.1,0.1,0.2
		c0.3,0.5,0.7,0.9,1,1.4c0.1,0.2,0.2,0.4,0.3,0.5c0.2,0.3,0.4,0.7,0.6,1c0.1,0.2,0.2,0.4,0.3,0.6c0.2,0.3,0.4,0.6,0.5,1
		c0.1,0.2,0.2,0.4,0.3,0.6c0.2,0.3,0.3,0.6,0.4,0.9c0.1,0.2,0.2,0.4,0.3,0.6c0.1,0.3,0.3,0.6,0.4,1c0.1,0.2,0.1,0.4,0.2,0.5
		c0.1,0.4,0.3,0.7,0.4,1.1c0,0.1,0.1,0.3,0.1,0.4c0.1,0.5,0.3,1,0.4,1.4c0,0.1,0,0.2,0.1,0.3c0.1,0.4,0.2,0.8,0.2,1.1
		c0,0.2,0.1,0.3,0.1,0.5c0.1,0.3,0.1,0.6,0.1,0.9c0,0.2,0,0.3,0.1,0.5c0,0.3,0.1,0.5,0.1,0.8c0,0.2,0,0.3,0,0.5c0,0.3,0,0.5,0,0.8
		c0,0.2,0,0.3,0,0.5c0,0.3,0,0.5,0,0.8c0,0.1,0,0.3,0,0.4c0,0.3,0,0.6,0,0.9c0,0.1,0,0.2,0,0.2c0,0.4-0.1,0.7-0.1,1.1
		c0,0.1,0,0.1,0,0.2c0,0.3-0.1,0.5-0.1,0.8c0,0.1,0,0.2,0,0.3c0,0.2-0.1,0.4-0.1,0.6c0,0.1,0,0.2-0.1,0.3c0,0.2-0.1,0.4-0.1,0.6
		c0,0.1,0,0.2-0.1,0.3c0,0.2-0.1,0.4-0.1,0.5c0,0.1,0,0.2-0.1,0.3c0,0.2-0.1,0.3-0.1,0.5c0,0.1,0,0.1-0.1,0.2
		c-0.1,0.2-0.1,0.4-0.2,0.6c0,0,0,0,0,0c-0.1,0.2-0.1,0.4-0.2,0.5H39.2c0,0,0-0.1,0-0.1c0-0.1,0-0.2-0.1-0.2c0-0.1-0.1-0.2-0.1-0.4
		c0-0.1-0.1-0.2-0.1-0.3c0-0.1-0.1-0.3-0.1-0.5c0-0.1,0-0.1-0.1-0.2c-0.1-0.2-0.1-0.5-0.2-0.8c0-0.1,0-0.1,0-0.2
		c0-0.2-0.1-0.4-0.1-0.6c0-0.1,0-0.2-0.1-0.3c0-0.2-0.1-0.4-0.1-0.6c0-0.1,0-0.3-0.1-0.4c0-0.2-0.1-0.4-0.1-0.6c0-0.1,0-0.3,0-0.4
		c0-0.2,0-0.4-0.1-0.7c0-0.1,0-0.3,0-0.4c0-0.3,0-0.5,0-0.8c0-0.1,0-0.2,0-0.3c0-0.4,0-0.8,0-1.2c0-0.1,0-0.2,0-0.3c0-0.3,0-0.6,0-1
		c0-0.2,0-0.3,0-0.5c0-0.3,0-0.6,0.1-0.8c0-0.2,0-0.4,0.1-0.5c0-0.3,0.1-0.6,0.1-0.8c0-0.2,0.1-0.4,0.1-0.6c0.1-0.3,0.1-0.6,0.2-0.9
		c0-0.2,0.1-0.4,0.1-0.5c0.1-0.3,0.2-0.7,0.3-1c0-0.2,0.1-0.3,0.1-0.5c0.1-0.5,0.3-1,0.5-1.5c0-0.1,0.1-0.2,0.1-0.2
		c0.2-0.4,0.3-0.8,0.5-1.2c0.1-0.2,0.2-0.3,0.2-0.5c0.1-0.3,0.3-0.7,0.5-1c0.1-0.2,0.2-0.4,0.3-0.6c0.2-0.3,0.3-0.6,0.5-1
		c0.1-0.2,0.2-0.4,0.4-0.6c0.2-0.3,0.4-0.6,0.6-1c0.1-0.2,0.2-0.4,0.4-0.6c0.2-0.4,0.5-0.7,0.7-1.1c0.1-0.2,0.2-0.3,0.4-0.5
		c0.4-0.5,0.8-1,1.2-1.6c0-0.1,0.1-0.1,0.1-0.2c0.4-0.5,0.8-0.9,1.3-1.4c0.2-0.2,0.3-0.4,0.5-0.5c0.3-0.4,0.7-0.7,1-1.1
		c0.2-0.2,0.4-0.4,0.6-0.6c0.3-0.3,0.7-0.7,1.1-1c0.2-0.2,0.5-0.4,0.7-0.6c0.4-0.3,0.8-0.7,1.2-1c0.2-0.2,0.5-0.4,0.8-0.6
		c0.5-0.4,0.9-0.7,1.4-1c0.2-0.2,0.5-0.3,0.7-0.5c0.7-0.5,1.5-1,2.3-1.5c0.6-0.3,5.6-3.5,5.6-7.7s-5-7.4-5.6-7.7
		c-0.8-0.5-1.6-1-2.3-1.5c-0.2-0.2-0.5-0.3-0.7-0.5c-0.5-0.3-1-0.7-1.4-1c-0.3-0.2-0.5-0.4-0.8-0.6c-0.4-0.3-0.8-0.6-1.2-1
		c-0.2-0.2-0.5-0.4-0.7-0.6c-0.4-0.3-0.7-0.6-1.1-1c-0.2-0.2-0.4-0.4-0.7-0.6c-0.3-0.3-0.7-0.7-1-1c-0.2-0.2-0.4-0.4-0.6-0.6
		c-0.3-0.4-0.7-0.7-1-1.1c-0.1-0.2-0.3-0.3-0.4-0.5c-0.4-0.5-0.9-1-1.2-1.6c-0.1-0.1-0.1-0.2-0.2-0.2c-0.3-0.4-0.6-0.9-0.9-1.3
		c-0.1-0.2-0.2-0.4-0.3-0.5c-0.2-0.3-0.4-0.7-0.6-1c-0.1-0.2-0.2-0.4-0.3-0.6c-0.2-0.3-0.4-0.6-0.5-0.9c-0.1-0.2-0.2-0.4-0.3-0.6
		c-0.2-0.3-0.3-0.6-0.4-0.9c-0.1-0.2-0.2-0.4-0.3-0.6c-0.1-0.3-0.3-0.6-0.4-1c-0.1-0.2-0.1-0.4-0.2-0.5c-0.1-0.4-0.3-0.7-0.4-1.1
		c0-0.1-0.1-0.2-0.1-0.4c-0.1-0.5-0.3-1-0.4-1.4c0-0.1,0-0.2-0.1-0.3c-0.1-0.4-0.2-0.7-0.2-1.1c0-0.2-0.1-0.3-0.1-0.5
		c0-0.3-0.1-0.6-0.1-0.9c0-0.2,0-0.3-0.1-0.5c0-0.3-0.1-0.5-0.1-0.8c0-0.2,0-0.3,0-0.5c0-0.3,0-0.5,0-0.8c0-0.2,0-0.3,0-0.5
		c0-0.3,0-0.5,0-0.8c0-0.1,0-0.3,0-0.4c0-0.3,0-0.6,0-0.9c0-0.1,0-0.1,0-0.2c0-0.4,0.1-0.7,0.1-1.1c0-0.1,0-0.2,0-0.3
		c0-0.3,0.1-0.5,0.1-0.7c0-0.1,0-0.2,0.1-0.4c0-0.2,0.1-0.4,0.1-0.6c0-0.1,0-0.2,0.1-0.4c0-0.2,0.1-0.4,0.1-0.5c0-0.1,0-0.2,0.1-0.3
		c0-0.2,0.1-0.3,0.1-0.5c0-0.1,0-0.2,0.1-0.3c0-0.2,0.1-0.3,0.1-0.5c0-0.1,0-0.2,0.1-0.2c0.1-0.2,0.1-0.4,0.2-0.6c0,0,0,0,0-0.1
		c0.1-0.2,0.1-0.4,0.2-0.5h48.2c0,0,0,0.1,0,0.1c0,0.1,0.1,0.2,0.1,0.3c0,0.1,0.1,0.2,0.1,0.3c0,0.1,0.1,0.2,0.1,0.3
		c0,0.1,0.1,0.3,0.1,0.4c0,0.1,0,0.2,0.1,0.3c0.1,0.2,0.1,0.5,0.2,0.7c0,0.1,0,0.2,0.1,0.3c0,0.2,0.1,0.4,0.1,0.6
		c0,0.1,0,0.3,0.1,0.4c0,0.2,0.1,0.4,0.1,0.6c0,0.1,0,0.3,0.1,0.4c0,0.2,0,0.4,0.1,0.6c0,0.1,0,0.3,0,0.5c0,0.2,0,0.4,0.1,0.6
		c0,0.2,0,0.3,0,0.5c0,0.2,0,0.5,0,0.7c0,0.1,0,0.3,0,0.4c0,0.4,0,0.8,0,1.2c0,0.1,0,0.2,0,0.3c0,0.3,0,0.6,0,0.9c0,0.2,0,0.3,0,0.5
		c0,0.3,0,0.5-0.1,0.8c0,0.2,0,0.4-0.1,0.5c0,0.3-0.1,0.5-0.1,0.8c0,0.2-0.1,0.4-0.1,0.6c-0.1,0.3-0.1,0.6-0.2,0.9
		c0,0.2-0.1,0.4-0.1,0.6c-0.1,0.3-0.2,0.6-0.3,1c0,0.2-0.1,0.3-0.1,0.5c-0.1,0.5-0.3,1-0.5,1.5c0,0.1-0.1,0.2-0.1,0.3
		c-0.1,0.4-0.3,0.8-0.5,1.2c-0.1,0.2-0.2,0.4-0.2,0.5c-0.1,0.3-0.3,0.7-0.5,1c-0.1,0.2-0.2,0.4-0.3,0.6c-0.2,0.3-0.3,0.6-0.5,0.9
		c-0.1,0.2-0.2,0.4-0.4,0.6c-0.2,0.3-0.4,0.6-0.6,1c-0.1,0.2-0.3,0.4-0.4,0.6c-0.2,0.4-0.5,0.7-0.7,1.1c-0.1,0.2-0.2,0.3-0.4,0.5
		c-0.4,0.5-0.8,1-1.2,1.6c0,0.1-0.1,0.1-0.1,0.2c-0.4,0.5-0.8,0.9-1.3,1.4c-0.2,0.2-0.3,0.4-0.5,0.5c-0.3,0.4-0.7,0.7-1,1.1
		c-0.2,0.2-0.4,0.4-0.6,0.6c-0.3,0.3-0.7,0.7-1.1,1c-0.2,0.2-0.5,0.4-0.7,0.6c-0.4,0.3-0.8,0.7-1.2,1c-0.2,0.2-0.5,0.4-0.8,0.6
		c-0.5,0.3-0.9,0.7-1.4,1c-0.2,0.2-0.5,0.3-0.7,0.5c-0.7,0.5-1.5,1-2.3,1.5C69.1,56.2,64,59.4,64,63.6z"/>
	<path fill="#FFFFFF" d="M40.8,94.6c-1.2,0.3-2,1.5-1.7,2.7c0.3,1.2,1.5,2,2.7,1.7c14.1-3.3,29.1-3.3,43.1,0c0.2,0,0.3,0.1,0.5,0.1
		c1,0,1.9-0.7,2.2-1.7c0.3-1.2-0.5-2.4-1.7-2.7C71.2,91.1,55.5,91.1,40.8,94.6z"/>
	<path fill="#FFFFFF" d="M81.3,35.4c0.3-1.2-0.5-2.4-1.7-2.7c-1.2-0.3-2.4,0.5-2.7,1.7c-1.2,5.3-5,10.1-11.4,14.2
		c-0.4,0.3-1.3,0.8-2.2,1.6c-0.9-0.8-1.8-1.4-2.2-1.6c-6.4-4.1-10.3-8.8-11.5-14.2c-0.3-1.2-1.5-2-2.7-1.7c-1.2,0.3-2,1.5-1.7,2.7
		c1.4,6.5,6,12.3,13.5,17c0.4,0.2,1.7,1.1,2.8,2.5c0.4,0.5,1.1,0.9,1.8,0.9h0c0.7,0,1.3-0.3,1.8-0.9c1.1-1.3,2.4-2.2,2.8-2.5
		C75.4,47.7,79.9,42,81.3,35.4z"/>
</g>
</svg>
